<?xml version="1.0" encoding="iso-8859-1"?>
<!-- Generator: Adobe Illustrator 19.0.0, SVG Export Plug-In . SVG Version: 6.00 Build 0)  -->
<svg version="1.1" id="Capa_1" xmlns="http://www.w3.org/2000/svg" xmlns:xlink="http://www.w3.org/1999/xlink" x="0px" y="0px"
	 viewBox="0 0 511.999 511.999" style="enable-background:new 0 0 511.999 511.999;" xml:space="preserve">
<path style="fill:#26BBEC;" d="M51.2,196.266h375.466v-85.333H51.2c-23.565,0-42.667,19.101-42.667,42.667l0,0
	C8.533,177.165,27.636,196.266,51.2,196.266z"/>
<path d="M426.666,204.8H51.2C22.969,204.8,0,181.831,0,153.6s22.969-51.2,51.2-51.2h375.466c4.713,0,8.533,3.82,8.533,8.533v85.333
	C435.199,200.979,431.379,204.8,426.666,204.8z M51.2,119.467c-18.82,0-34.134,15.312-34.134,34.134s15.312,34.134,34.134,34.134
	h366.933v-68.266H51.2V119.467z"/>
<polygon style="fill:#99783D;" points="503.467,153.6 426.666,196.266 426.666,110.933 "/>
<path d="M426.666,204.8c-1.496,0-2.991-0.394-4.329-1.179c-2.604-1.534-4.204-4.331-4.204-7.354v-85.333
	c0-3.023,1.6-5.821,4.204-7.354c2.613-1.534,5.829-1.571,8.474-0.106l76.8,42.667c2.708,1.507,4.388,4.36,4.388,7.461
	s-1.68,5.954-4.388,7.461l-76.8,42.667C429.521,204.442,428.091,204.8,426.666,204.8z M435.199,125.435v56.329l50.696-28.165
	L435.199,125.435z"/>
<path d="M358.4,170.667H42.667c-4.713,0-8.533-3.82-8.533-8.533c0-4.713,3.82-8.533,8.533-8.533H358.4
	c4.713,0,8.533,3.82,8.533,8.533C366.933,166.846,363.112,170.667,358.4,170.667z"/>
<path style="fill:#FFDD95;" d="M272.768,85.333L204.8,76.8v12.8c0-11.78-9.553-21.333-21.333-21.333S162.134,77.82,162.134,89.6
	v-4.267V128v69.423c0,15.667,10.953,28.723,25.6,32.081v120.363h110.933V229.504c14.648-3.362,25.6-16.414,25.6-32.081v-60.591
	C324.267,108.39,301.21,85.333,272.768,85.333z"/>
<path d="M298.666,358.4H187.733c-4.713,0-8.533-3.82-8.533-8.533V235.719c-15.363-6.311-25.6-21.213-25.6-38.296V85.333
	c0-1.692,0.492-3.269,1.342-4.596c3.786-12.154,15.141-21.004,28.525-21.004c8.125,0,15.504,3.263,20.894,8.544
	c0.498-0.019,1-0.004,1.502,0.057l67.458,8.469c32.85,0.298,59.48,27.112,59.48,60.029v60.592c0,17.079-10.238,31.979-25.6,38.296
	v114.148C307.2,354.579,303.379,358.4,298.666,358.4z M196.266,341.333h93.867v-111.83c0-3.977,2.746-7.427,6.625-8.316
	c11.171-2.564,18.974-12.338,18.974-23.765v-60.592c0-23.691-19.275-42.965-42.967-42.965c-0.354,0-0.709-0.023-1.062-0.067
	l-58.37-7.33v3.13c0,4.713-3.82,8.533-8.533,8.533c-4.713,0-8.533-3.82-8.533-8.533c0-7.058-5.741-12.8-12.8-12.8
	s-12.8,5.741-12.8,12.8v107.823c0,11.431,7.802,21.202,18.972,23.765c3.879,0.888,6.627,4.339,6.627,8.316V341.333z"/>
<path d="M204.8,128c-4.713,0-8.533-3.82-8.533-8.533V76.8c0-4.713,3.82-8.533,8.533-8.533c4.713,0,8.533,3.82,8.533,8.533v42.667
	C213.334,124.179,209.512,128,204.8,128z"/>
<path d="M238.933,119.467c-4.713,0-8.533-3.82-8.533-8.533V85.333c0-4.713,3.82-8.533,8.533-8.533c4.713,0,8.533,3.82,8.533,8.533
	v25.6C247.466,115.646,243.646,119.467,238.933,119.467z"/>
<path d="M273.067,119.467c-4.713,0-8.533-3.82-8.533-8.533V85.333c0-4.713,3.82-8.533,8.533-8.533c4.713,0,8.533,3.82,8.533,8.533
	v25.6C281.6,115.646,277.779,119.467,273.067,119.467z"/>
<rect x="162.129" y="281.598" style="fill:#FFFFFF;" width="162.129" height="68.263"/>
<path d="M324.267,358.4H162.133c-4.713,0-8.533-3.82-8.533-8.533V281.6c0-4.713,3.82-8.533,8.533-8.533h162.134
	c4.713,0,8.533,3.82,8.533,8.533v68.266C332.8,354.579,328.979,358.4,324.267,358.4z M170.667,341.333h145.066v-51.2H170.667
	V341.333z"/>
<path d="M281.6,358.4c-4.713,0-8.533-3.82-8.533-8.533V281.6c0-4.713,3.82-8.533,8.533-8.533c4.713,0,8.533,3.82,8.533,8.533v68.266
	C290.133,354.579,286.313,358.4,281.6,358.4z"/>
<rect x="179.198" y="349.861" style="fill:#606060;" width="136.537" height="93.866"/>
<path d="M315.733,452.267H179.2c-4.713,0-8.533-3.82-8.533-8.533v-93.867c0-4.713,3.82-8.533,8.533-8.533h136.533
	c4.713,0,8.533,3.82,8.533,8.533v93.867C324.267,448.445,320.445,452.267,315.733,452.267z M187.733,435.199H307.2v-76.8H187.733
	V435.199z"/>
<g>
</g>
<g>
</g>
<g>
</g>
<g>
</g>
<g>
</g>
<g>
</g>
<g>
</g>
<g>
</g>
<g>
</g>
<g>
</g>
<g>
</g>
<g>
</g>
<g>
</g>
<g>
</g>
<g>
</g>
</svg>
