<?xml version="1.0"?>
<svg xmlns="http://www.w3.org/2000/svg" xmlns:xlink="http://www.w3.org/1999/xlink" version="1.1" id="Capa_1" x="0px" y="0px" viewBox="0 0 512 512" style="enable-background:new 0 0 512 512;" xml:space="preserve" width="512px" height="512px" class=""><g><rect x="13.017" y="208.272" style="fill:#9F7C36" width="208.272" height="295.05" data-original="#99783D" class="active-path" data-old_color="#846A35"/><path d="M221.288,512H13.017c-4.793,0-8.678-3.885-8.678-8.678V208.272c0-4.793,3.885-8.678,8.678-8.678h208.27  c4.793,0,8.678,3.885,8.678,8.678v295.05C229.966,508.114,226.08,512,221.288,512z M21.695,494.643H212.61V216.949H21.695V494.643z" data-original="#000000" class=""/><rect x="290.71" y="208.272" style="fill:#9F7C36" width="208.272" height="295.05" data-original="#99783D" class="active-path" data-old_color="#846A35"/><path d="M498.983,512H290.711c-4.793,0-8.678-3.885-8.678-8.678V208.272c0-4.793,3.885-8.678,8.678-8.678h208.272  c4.793,0,8.678,3.885,8.678,8.678v295.05C507.661,508.114,503.775,512,498.983,512z M299.39,494.643h190.915V216.949H299.39V494.643  z" data-original="#000000" class=""/><rect x="143.191" y="130.172" style="fill:#9F7C36" width="225.629" height="225.629" data-original="#99783D" class="active-path" data-old_color="#846A35"/><path d="M368.814,364.474H143.186c-4.793,0-8.678-3.885-8.678-8.678V130.169c0-4.793,3.885-8.678,8.678-8.678h225.627  c4.793,0,8.678,3.885,8.678,8.678v225.627C377.491,360.589,373.606,364.474,368.814,364.474z M151.864,347.119h208.272V138.847  H151.864V347.119z" data-original="#000000" class=""/><rect x="47.728" y="390.507" style="fill:#FEDA38;" width="43.39" height="112.815" data-original="#FEDA38" class=""/><path d="M91.119,512h-43.39c-4.793,0-8.678-3.885-8.678-8.678V390.509c0-4.793,3.885-8.678,8.678-8.678h43.39  c4.793,0,8.678,3.885,8.678,8.678v112.813C99.796,508.114,95.911,512,91.119,512z M56.406,494.643H82.44v-95.458H56.406V494.643z" data-original="#000000" class=""/><rect x="143.191" y="390.507" style="fill:#FEDA38;" width="43.39" height="112.815" data-original="#FEDA38" class=""/><path d="M186.577,512h-43.39c-4.793,0-8.678-3.885-8.678-8.678V390.509c0-4.793,3.885-8.678,8.678-8.678h43.39  c4.793,0,8.678,3.885,8.678,8.678v112.813C195.254,508.114,191.368,512,186.577,512z M151.864,494.643h26.033v-95.458h-26.033  V494.643z" data-original="#000000" class=""/><rect x="325.426" y="390.507" style="fill:#FEDA38;" width="43.39" height="112.815" data-original="#FEDA38" class=""/><path d="M368.814,512h-43.39c-4.793,0-8.678-3.885-8.678-8.678V390.509c0-4.793,3.885-8.678,8.678-8.678h43.39  c4.793,0,8.678,3.885,8.678,8.678v112.813C377.491,508.114,373.606,512,368.814,512z M334.101,494.643h26.033v-95.458h-26.033  V494.643z" data-original="#000000" class=""/><rect x="47.728" y="242.987" style="fill:#FEDA38;" width="43.39" height="112.815" data-original="#FEDA38" class=""/><path d="M91.119,364.474h-43.39c-4.793,0-8.678-3.885-8.678-8.678V242.983c0-4.793,3.885-8.678,8.678-8.678h43.39  c4.793,0,8.678,3.885,8.678,8.678v112.814C99.796,360.589,95.911,364.474,91.119,364.474z M56.406,347.119H82.44v-95.458H56.406  V347.119z" data-original="#000000" class=""/><rect x="221.29" y="173.556" style="fill:#FEDA38;" width="69.42" height="147.53" data-original="#FEDA38" class=""/><path d="M290.711,329.763h-69.423c-4.793,0-8.678-3.885-8.678-8.678V173.559c0-4.793,3.885-8.678,8.678-8.678h69.423  c4.793,0,8.678,3.885,8.678,8.678v147.525C299.39,325.877,295.504,329.763,290.711,329.763z M229.966,312.406h52.068V182.237  h-52.068L229.966,312.406L229.966,312.406z" data-original="#000000" class=""/><rect x="420.883" y="390.507" style="fill:#FEDA38;" width="43.39" height="112.815" data-original="#FEDA38" class=""/><path d="M464.27,512h-43.39c-4.793,0-8.678-3.885-8.678-8.678V390.509c0-4.793,3.885-8.678,8.678-8.678h43.39  c4.793,0,8.678,3.885,8.678,8.678v112.813C472.948,508.114,469.063,512,464.27,512z M429.559,494.643h26.033v-95.458h-26.033  V494.643z" data-original="#000000" class=""/><rect x="420.883" y="242.987" style="fill:#FEDA38;" width="43.39" height="112.815" data-original="#FEDA38" class=""/><path d="M464.27,364.474h-43.39c-4.793,0-8.678-3.885-8.678-8.678V242.983c0-4.793,3.885-8.678,8.678-8.678h43.39  c4.793,0,8.678,3.885,8.678,8.678v112.814C472.948,360.589,469.063,364.474,464.27,364.474z M429.559,347.119h26.033v-95.458  h-26.033V347.119z" data-original="#000000" class=""/><path d="M256,138.847c-4.793,0-8.678-3.885-8.678-8.678V8.678C247.322,3.885,251.207,0,256,0c4.793,0,8.678,3.885,8.678,8.678  v121.491C264.678,134.962,260.793,138.847,256,138.847z" data-original="#000000" class=""/><polygon style="fill:#EE5281;" points="377.491,95.458 256,95.458 256,26.033 377.491,26.033 325.423,60.746 " data-original="#EE5281" class=""/><path d="M377.491,104.136H256c-4.793,0-8.678-3.885-8.678-8.678V26.033c0-4.793,3.885-8.678,8.678-8.678h121.491  c3.822,0,7.199,2.505,8.305,6.163c1.11,3.661-0.309,7.615-3.492,9.735l-41.237,27.492l41.237,27.492  c3.183,2.121,4.602,6.074,3.492,9.735C384.69,101.631,381.314,104.136,377.491,104.136z M264.678,86.779h84.152l-28.22-18.813  c-2.415-1.61-3.864-4.318-3.864-7.22c0-2.902,1.449-5.61,3.864-7.22l28.22-18.813h-84.152L264.678,86.779L264.678,86.779z" data-original="#000000" class=""/></g> </svg>
